<?xml version="1.0" encoding="UTF-8" standalone="no"?>
<svg xmlns="http://www.w3.org/2000/svg" xmlns:xlink="http://www.w3.org/1999/xlink" width="30.176mm" height="30.176mm" viewBox="-15.088135 -15.088135 30.176270 30.176270">
    <path transform="matrix(1,0,0,-1,-131.5,336)" style="stroke:#000000;stroke-width:0.05mm;fill:none" d="M131.418701,325.998535L131.912109,326.005859C133.025314,326.050659,134.122925,326.283356,135.158447,326.694336L137.992188,322.330566L141.347168,324.509277L138.513672,328.872314L138.787598,329.149658C139.575775,329.985657,140.212616,330.952301,140.669922,332.006348L145.756348,330.925049L146.588135,334.837646L141.501465,335.918701L141.494141,336.411621C141.449677,337.525024,141.217224,338.622894,140.806396,339.658691L145.169434,342.492188L142.990723,345.847168L138.626953,343.013184L138.350342,343.287109C137.514297,344.075256,136.547821,344.712341,135.493896,345.169922L136.574951,350.256348L132.662354,351.088135L131.581299,346.001465L131.088379,345.994141C129.975006,345.949524,128.877243,345.716675,127.841553,345.305664L125.007813,349.669434L121.65332,347.490723L124.486816,343.127197L124.212646,342.849854C123.424606,342.013977,122.787766,341.047546,122.330566,339.993652L117.243652,341.074951L116.411865,337.162354L121.499023,336.081055L121.506348,335.587891C121.550873,334.47467,121.783394,333.376984,122.194092,332.341309L117.831055,329.507813L120.009277,326.152832L124.373047,328.986816L124.650146,328.712646C125.486031,327.924591,126.4524,327.287689,127.506104,326.830078L126.425049,321.743652L130.337646,320.911865L131.418701,325.998535z"/>
    <path transform="matrix(1,0,0,-1,-131.5,336)" style="stroke:#000000;stroke-width:0.05mm;fill:none" d="M131.217041,330.50708L130.937744,330.52832C128.02388,330.827393,125.855804,333.357697,126.00708,336.282959C126.162834,339.316956,128.749023,341.649719,131.782959,341.49292C134.816925,341.337097,137.149643,338.750977,136.99292,335.717041C136.842667,332.792938,134.427948,330.499542,131.5,330.5L131.217041,330.50708z"/>
</svg>
